<svg id="SvgjsSvg1000" xmlns="http://www.w3.org/2000/svg" version="1.1" xmlns:xlink="http://www.w3.org/1999/xlink" xmlns:svgjs="http://svgjs.com/svgjs" width="34" height="33" viewBox="0 0 34 33"><title>icon-download</title><desc>Created with Avocode.</desc><defs id="SvgjsDefs1001"><style>
#icon-download {
  fill: #00aeef;
  fill-rule: evenodd;
}
</style></defs><path id="icon-download" d="M1261.5 836.998L1259.5 836.998C1258.67 836.998 1258 836.326 1258 835.498C1258 834.6700000000001 1258.67 833.998 1259.5 833.998L1261.5 833.998C1263.43 833.998 1265 832.428 1265 830.498C1265 829.081 1264.15 827.8130000000001 1262.85 827.267L1261 826.4970000000001L1261 824.498C1261 822.0600000000001 1259.09 820.0880000000001 1256.65 820.009L1255.25 819.964L1254.39 818.8670000000001C1252.95 817.0440000000001 1250.8100000000002 815.998 1248.5 815.998C1244.55 815.998 1241.27 819.089 1241.03 823.034L1240.92 824.726L1239.42 825.511C1237.93 826.2909999999999 1237 827.8199999999999 1237 829.4979999999999C1237 831.9799999999999 1239.02 833.9979999999999 1241.5 833.9979999999999L1243.5 833.9979999999999C1244.33 833.9979999999999 1245 834.67 1245 835.4979999999999C1245 836.3259999999999 1244.33 836.9979999999999 1243.5 836.9979999999999L1241.5 836.9979999999999C1237.36 836.9979999999999 1234 833.641 1234 829.4979999999999C1234 826.608 1235.64 824.1039999999999 1238.03 822.852C1238.37 817.356 1242.92 812.9979999999999 1248.5 812.9979999999999C1251.85 812.9979999999999 1254.82 814.5709999999999 1256.75 817.011C1260.77 817.141 1264 820.439 1264 824.4979999999999C1266.35 825.478 1268 827.794 1268 830.4979999999999C1268 834.088 1265.09 836.9979999999999 1261.5 836.9979999999999ZM1246 839.498C1246 839.912 1246.17 840.287 1246.44 840.5590000000001L1250.44 844.5590000000001C1250.71 844.83 1251.0900000000001 844.998 1251.5 844.998C1251.91 844.998 1252.29 844.83 1252.56 844.5590000000001L1256.56 840.5590000000001C1256.83 840.287 1257 839.912 1257 839.498C1257 838.6700000000001 1256.33 837.999 1255.5 837.999C1255.09 837.999 1254.71 838.166 1254.44 838.438L1253 839.877L1253 830.487C1253.6 830.031 1254 829.313 1254 828.4989999999999C1254 827.117 1252.88 825.9979999999999 1251.5 825.9979999999999C1250.12 825.9979999999999 1249 827.117 1249 828.4989999999999C1249 829.3129999999999 1249.4 830.031 1250 830.487L1250 839.877L1248.56 838.438C1248.29 838.1659999999999 1247.9099999999999 837.999 1247.5 837.999C1246.67 837.999 1246 838.6700000000001 1246 839.498Z " fill="#000000" fill-opacity="1" transform="matrix(1,0,0,1,-1234,-812)"></path></svg>
