<svg id="SvgjsSvg1000" xmlns="http://www.w3.org/2000/svg" version="1.1" xmlns:xlink="http://www.w3.org/1999/xlink" xmlns:svgjs="http://svgjs.com/svgjs" width="17" height="17" viewBox="0 0 17 17"><title>icon-close</title><desc>Created with Avocode.</desc><defs id="SvgjsDefs1001"></defs><path id="SvgjsPath1007" d="M4272.31 185.009L4277.38 190.071C4278.03 190.722 4278.03 191.777 4277.38 192.428C4276.7300000000005 193.079 4275.67 193.079 4275.02 192.428L4269.96 187.36599999999999L4264.85 192.476C4264.1900000000005 193.132 4263.13 193.132 4262.47 192.476C4261.820000000001 191.82 4261.820000000001 190.757 4262.47 190.101L4267.58 184.99099999999999L4262.5199999999995 179.92899999999997C4261.87 179.27799999999996 4261.87 178.22299999999998 4262.5199999999995 177.57199999999997C4263.169999999999 176.92099999999996 4264.23 176.92099999999996 4264.879999999999 177.57199999999997L4269.94 182.634L4275.099999999999 177.47099999999998C4275.759999999999 176.81599999999997 4276.82 176.81599999999997 4277.48 177.47099999999998C4278.129999999999 178.12699999999998 4278.129999999999 179.19099999999997 4277.48 179.84699999999998Z " fill="#ffffff" fill-opacity="1" transform="matrix(1,0,0,1,-4261,-176)"></path></svg>