<svg id="SvgjsSvg1008" xmlns="http://www.w3.org/2000/svg" version="1.1" xmlns:xlink="http://www.w3.org/1999/xlink" xmlns:svgjs="http://svgjs.com/svgjs" width="32" height="33" viewBox="0 0 32 33"><title>icon-blank</title><desc>Created with Avocode.</desc><defs id="SvgjsDefs1009"></defs><path id="SvgjsPath1010" d="M1815 237.999L1807 237.999C1805.9 237.999 1805 237.103 1805 235.998C1805 234.89399999999998 1805.9 233.999 1807 233.999L1813 233.999C1814.1 233.999 1815 233.103 1815 231.999L1815 215.999C1815 214.894 1814.1 213.999 1813 213.999L1797 213.999C1795.89 213.999 1795 214.894 1795 215.999L1795 221.999C1795 223.103 1794.1 223.999 1793 223.999C1791.9 223.999 1791 223.103 1791 221.999L1791 213.999C1791 211.79 1792.79 209.999 1795 209.999L1815 209.999C1817.21 209.999 1819 211.79 1819 213.999L1819 233.999C1819 236.208 1817.21 237.999 1815 237.999ZM1797 227.999C1797.36 227.999 1797.69 228.06 1798.02 228.148L1802.17 223.999L1801 223.999C1799.9 223.999 1799 223.103 1799 221.999C1799 220.894 1799.9 219.998 1801 219.998L1807 219.998C1808.1 219.998 1809 220.89399999999998 1809 221.999L1809 227.999C1809 229.10399999999998 1808.1 229.998 1807 229.998C1805.9 229.998 1805 229.10399999999998 1805 227.999L1805 226.828L1800.85 230.976C1800.9399999999998 231.304 1801 231.643 1801 231.999L1801 237.999C1801 240.208 1799.21 241.999 1797 241.999L1791 241.999C1788.79 241.999 1787 240.208 1787 237.999L1787 231.999C1787 229.79 1788.79 227.999 1791 227.999ZM1791 233.999L1791 235.998C1791 237.10299999999998 1791.9 237.999 1793 237.999L1795 237.999C1796.1 237.999 1797 237.103 1797 235.998L1797 233.999C1797 232.894 1796.1 231.999 1795 231.999L1793 231.999C1791.9 231.999 1791 232.894 1791 233.999Z " fill="#000000" fill-opacity="1" transform="matrix(1,0,0,1,-1787,-209)"></path></svg>